:SAMPLES-PER-SECOND 30
:FULLY-SPECIFIED
:DEGREES
224
root  -6.27465 39.619 1.72341 -167.271 -73.5417 166.586
RightUpLeg  7.8739 -14.7285 -11.0598
RightLeg  9.97086 -29.4152 0.0398569
RightFoot  -9.86346 -0.158723 7.11341
RightToes  -6.40286e-010 0 -3.6325e-017
Spine  6.79659 4.74773 18.1656
Spine1  5.09204 8.97488 -14.5071
HEad  -7.87447 -0.511955 -8.19812
LeftShoulder1  -0.515491 4.81691 -33.0979
LeftArm  4.95393 17.2246 -39.0728
LeftForeArm  24.1649 -16.7823 -6.15772
LeftHand  -0.0210826 7.02852 0.988047
RightShoulder  -0.868314 -5.79068 31.3414
RightArm  10.9141 0.728582 52.6306
RightForeArm  22.6227 50.3325 11.8026
RightHand  -0.476939 5.87866 -5.23172
LeftUpLeg  -16.242 6.32977 1.61534
LeftLeg  5.7528 11.232 -0.098998
LeftFoot  -0.391246 0.166133 -1.69622
LeftToes  1.32783e-010 1.73515e-011 1.59258e-011
225
root  -7.11242 39.4694 1.84408 -165.85 -75.5092 165
RightUpLeg  10.0764 -14.7782 -11.8218
RightLeg  9.50698 -30.5884 0.0751318
RightFoot  -10.1849 -0.158798 8.81981
RightToes  -6.40286e-010 0 -3.6325e-017
Spine  5.86623 4.94392 17.8032
Spine1  5.65473 9.32726 -15.3019
HEad  -8.49907 -1.98183 -6.51832
LeftShoulder1  -0.400061 4.53878 -32.5212
LeftArm  -0.693981 18.7172 -37.9345
LeftForeArm  30.6734 -11.6147 -7.97696
LeftHand  -0.0269403 8.13211 0.693384
RightShoulder  -0.830281 -5.72993 30.6573
RightArm  12.3883 5.05627 53.2309
RightForeArm  21.8014 50.1527 11.7874
RightHand  -0.487437 5.86691 -5.34272
LeftUpLeg  -16.0607 6.85004 0.758516
LeftLeg  7.84328 11.459 0.570779
LeftFoot  0.328868 0.0810453 -0.841299
LeftToes  1.32783e-010 1.73515e-011 1.59258e-011
226
root  -8.01085 39.3165 2.01864 -162.656 -76.8684 161.693
RightUpLeg  12.2462 -15.4585 -13.5782
RightLeg  9.19489 -30.2802 0.496701
RightFoot  -10.6393 -0.137577 10.7692
RightToes  -6.40286e-010 0 -3.6325e-017
Spine  5.30885 5.05627 16.8973
Spine1  5.72886 9.6074 -16.3906
HEad  -9.40698 -3.04113 -5.17573
LeftShoulder1  -0.335755 4.38051 -32.1741
LeftArm  -3.84364 21.0137 -36.4521
LeftForeArm  35.8316 -8.10373 -8.22341
LeftHand  -0.0607173 8.42975 -0.621668
RightShoulder  -0.749846 -5.57933 29.4644
RightArm  12.1658 8.29898 53.6158
RightForeArm  21.3118 49.9498 11.7337
RightHand  -0.500304 6.17079 -5.34801
LeftUpLeg  -16.0818 7.53641 -0.558578
LeftLeg  9.76977 11.0645 0.884845
LeftFoot  2.75942 -0.127548 0.879832
LeftToes  1.32783e-010 1.73515e-011 1.59258e-011
227
root  -8.98805 39.0952 2.28329 -155.796 -78.1529 154.483
RightUpLeg  14.2723 -17.9852 -16.8224
RightLeg  10.587 -27.3584 -0.128996
RightFoot  -11.3963 -0.0699109 13.4494
RightToes  -6.40286e-010 0 -3.6325e-017
Spine  4.70524 5.03874 15.269
Spine1  6.05678 9.65862 -16.9988
HEad  -10.3858 -4.70087 -3.90596
LeftShoulder1  -0.265907 4.19738 -32.2019
LeftArm  -4.36485 22.9683 -34.8342
LeftForeArm  38.7637 -5.63886 -8.14481
LeftHand  -0.100952 10.1024 -1.08284
RightShoulder  -0.674746 -5.4147 28.6273
RightArm  10.6521 10.6057 52.7519
RightForeArm  21.1563 49.8727 11.7121
RightHand  -0.436201 6.32541 -4.65175
LeftUpLeg  -16.3979 9.24557 -2.94096
LeftLeg  12.7023 7.08835 0.832174
LeftFoot  3.29874 -0.347201 2.55173
LeftToes  1.32783e-010 1.73515e-011 1.59258e-011
228
root  -9.96236 38.8765 2.59108 -147.07 -79.2933 144.992
RightUpLeg  16.418 -23.0937 -21.3068
RightLeg  13.4983 -20.366 -2.07975
RightFoot  -11.599 -0.0439187 17.2579
RightToes  -6.40286e-010 0 -3.6325e-017
Spine  4.8011 4.7162 13.7718
Spine1  6.28055 9.51765 -17.8881
HEad  -12.0855 -6.07971 -3.09814
LeftShoulder1  -0.191981 4.00614 -32.1057
LeftArm  -4.03073 24.3311 -33.4995
LeftForeArm  40.7985 -3.79829 -7.98823
LeftHand  -0.152183 9.47331 -2.62857
RightShoulder  -0.662054 -5.40872 28.0515
RightArm  9.05379 12.1142 51.5863
RightForeArm  21.114 49.235 11.4295
RightHand  -0.44726 6.25915 -4.78629
LeftUpLeg  -16.5168 10.2137 -5.54313
LeftLeg  16.8348 4.34718 1.62499
LeftFoot  0.269272 -0.294745 2.91394
LeftToes  1.32783e-010 1.73515e-011 1.59258e-011
229
root  -10.9227 38.7309 2.92101 -139.942 -79.6046 136.503
RightUpLeg  17.7218 -25.9254 -25.2914
RightLeg  17.9938 -13.9513 -4.92767
RightFoot  -10.4431 -0.2634 21.4456
RightToes  -6.40286e-010 0 -3.6325e-017
Spine  5.59118 4.61356 12.1815
Spine1  6.71652 9.54587 -18.4667
HEad  -13.478 -6.96442 -3.57377
LeftShoulder1  -0.142319 3.87366 -32.3479
LeftArm  -4.12119 25.2859 -32.6601
LeftForeArm  41.3108 -2.93547 -7.81547
LeftHand  -0.0705328 9.38277 -0.518358
RightShoulder  -0.616118 -5.30143 27.5517
RightArm  7.82318 12.4863 49.8666
RightForeArm  20.1462 48.524 11.1956
RightHand  -0.431127 5.71411 -4.82112
LeftUpLeg  -14.9971 10.4826 -7.33191
LeftLeg  19.3666 3.55976 1.73879
LeftFoot  -2.14182 -0.337135 4.33265
LeftToes  1.32783e-010 1.73515e-011 1.59258e-011
